#N canvas 442 514 769 415 10;
#X obj 50 20 nbx 5 14 0 10000 0 1 empty empty empty 0 -8 0 10 #fcfcfc
#000000 #000000 200 256 0;
#X obj 180 220 +~;
#X obj 370 220 +~;
#X obj 200 380 dac~;
#X obj 200 350 *~;
#X obj 270 327 hsl 128 15 0 1 0 0 empty empty empty -2 -8 0 10 #fcfcfc
#000000 #000000 5000 1;
#X floatatom 270 350 5 0 0 0 - - -, f 5;
#X obj 70 160 nbx 6 14 0 1000 0 1 empty empty empty 0 -8 0 10 #fcfcfc
#000000 #000000 90 256 0;
#X obj 50 180 *~;
#X obj 70 80 nbx 6 14 0 1000 0 1 empty empty empty 0 -8 0 10 #fcfcfc
#000000 #000000 1.39 256 0;
#X obj 50 100 *~;
#X obj 190 120 *~;
#X obj 210 100 nbx 6 14 0 1000 0 1 empty empty empty 0 -8 0 10 #fcfcfc
#000000 #000000 0.53 256 0;
#X obj 350 80 nbx 6 14 0 1000 0 1 empty empty empty 0 -8 0 10 #fcfcfc
#000000 #000000 1.433 256 0;
#X obj 330 100 *~;
#X obj 350 160 nbx 6 14 0 1000 0 1 empty empty empty 0 -8 0 10 #fcfcfc
#000000 #000000 80 256 0;
#X obj 330 180 *~;
#X obj 430 170 *~;
#X obj 450 140 nbx 5 14 -1e+37 1e+37 0 1 empty empty empty 0 -8 0 10
#fcfcfc #000000 #000000 0.98 256 0;
#X obj 200 320 *~;
#X obj 474 278 vline~;
#X obj 200 290 +~;
#X obj 370 260 *~ 0.65;
#X obj 180 260 *~ 0.45;
#X obj 180 240 vdp_circle~;
#X obj 370 240 vdp_circle~;
#X obj 562 190 vline~;
#X obj 560 10 bng 15 250 50 0 empty empty empty 17 7 0 10 #fcfcfc #000000
#000000;
#X msg 500 230 0 \, 1 2 \, 0 300 10;
#X obj 50 130 vdp_circle~;
#X obj 330 130 vdp_circle~;
#X obj 450 60 nbx 5 14 -1e+37 1e+37 0 1 empty empty empty 0 -8 0 10
#fcfcfc #000000 #000000 9 256 0;
#X obj 140 90 nbx 5 14 -1e+37 1e+37 0 1 empty empty empty 0 -8 0 10
#fcfcfc #000000 #000000 9 256 0;
#X msg 588 142 0 \, 3 2 \, 0 200 10;
#X connect 0 0 10 0;
#X connect 0 0 11 0;
#X connect 0 0 14 0;
#X connect 0 0 17 0;
#X connect 1 0 24 0;
#X connect 2 0 25 0;
#X connect 4 0 3 0;
#X connect 4 0 3 1;
#X connect 5 0 6 0;
#X connect 5 0 4 1;
#X connect 7 0 8 1;
#X connect 8 0 1 0;
#X connect 9 0 10 1;
#X connect 10 0 29 0;
#X connect 11 0 1 1;
#X connect 12 0 11 1;
#X connect 13 0 14 1;
#X connect 14 0 30 0;
#X connect 15 0 16 1;
#X connect 16 0 2 0;
#X connect 17 0 2 1;
#X connect 18 0 17 1;
#X connect 19 0 4 0;
#X connect 20 0 19 1;
#X connect 21 0 19 0;
#X connect 22 0 21 1;
#X connect 23 0 21 0;
#X connect 24 0 23 0;
#X connect 25 0 22 0;
#X connect 26 0 25 1;
#X connect 26 0 24 1;
#X connect 27 0 28 0;
#X connect 27 0 33 0;
#X connect 28 0 20 0;
#X connect 29 0 8 0;
#X connect 30 0 16 0;
#X connect 31 0 30 1;
#X connect 32 0 29 1;
#X connect 33 0 26 0;
