#N canvas 825 452 627 357 10;
#X obj 50 50 hsl 128 15 20 4000 0 0 empty empty empty -2 -8 0 10 #fcfcfc
#000000 #000000 1050 1;
#X floatatom 60 70 5 0 0 0 - - -, f 5;
#X text 50 30 Frequency;
#X text 230 30 mu;
#X obj 230 50 hsl 128 15 0.01 5 0 0 empty empty empty -2 -8 0 10 #fcfcfc
#000000 #000000 1088 1;
#X floatatom 240 70 5 0 0 0 - - -, f 5;
#X obj 50 140 *~;
#X obj 100 120 hsl 128 15 0 1 0 0 empty empty empty -2 -8 0 10 #fcfcfc
#000000 #000000 600 1;
#X obj 50 170 dac~;
#X floatatom 110 150 5 0 0 0 - - -, f 5;
#X obj 50 100 lienard_even~;
#X connect 0 0 1 0;
#X connect 0 0 10 0;
#X connect 4 0 5 0;
#X connect 4 0 10 1;
#X connect 6 0 8 0;
#X connect 6 0 8 1;
#X connect 7 0 6 1;
#X connect 7 0 9 0;
#X connect 10 0 6 0;
