#N canvas 565 189 1299 740 10;
#X obj 30 40 hsl 128 15 20 1000 0 0 empty empty empty -2 -8 0 10 #fcfcfc
#000000 #000000 1166 1;
#X obj 110 60 nbx 5 14 -1e+37 1e+37 0 0 empty empty empty 0 -8 0 10
#fcfcfc #000000 #000000 110 256 0;
#X obj 30 10 nbx 5 14 20 1000 0 0 empty empty empty 0 -8 0 10 #fcfcfc
#000000 #000000 110 256 0;
#X text 100 10 Freq;
#X obj 460 40 hsl 128 15 0 1 0 0 empty empty empty -2 -8 0 10 #fcfcfc
#000000 #000000 7850 1;
#X obj 540 60 nbx 5 14 -1e+37 1e+37 0 0 empty empty empty 0 -8 0 10
#fcfcfc #000000 #000000 0.61811 256 0;
#X obj 460 10 nbx 5 14 0 1 0 0 empty empty empty 0 -8 0 10 #fcfcfc
#000000 #000000 0 256 0;
#X text 530 10 Detune;
#X obj 460 100 fexpr~ (10028.7312891634*pow($x \, 11))-(50818.8652045924*pow($x
\, 10))+(111363.4808729368*pow($x \, 9))-(138150.6761080548*pow($x
\, 8))+(106649.6679158292*pow($x \, 7))-(53046.9642751875*pow($x \,
6))+(17019.9518580080*pow($x \, 5))-(3425.0836591318*pow($x \, 4))+(404.2703938388*pow($x
\, 3))-(24.1878824391*pow($x \, 2))+(0.6717417634*$x)+0.0030115596
, f 65;
#X obj 30 460 phasor~;
#X obj 110 240 fexpr~ $x1 * (1 - 0.110023 * $x2);
#X obj 490 240 fexpr~ $x1 * (1 - 0.0628844 * $x2);
#X obj 870 240 fexpr~ $x1 * (1 - 0.0195236 * $x2);
#X obj 110 360 fexpr~ $x1 * (1 - 0.0199122 * $x2);
#X obj 490 350 fexpr~ $x1 * (1 - 0.0621654 * $x2);
#X obj 870 350 fexpr~ $x1 * (1 - 0.107452 * $x2);
#X obj 110 265 phasor~;
#X obj 110 385 phasor~;
#X obj 490 375 phasor~;
#X obj 490 265 phasor~;
#X obj 870 265 phasor~;
#X obj 870 375 phasor~;
#X obj 870 40 hsl 128 15 0 1 0 0 empty empty empty -2 -8 0 10 #fcfcfc
#000000 #000000 12650 1;
#X obj 950 60 nbx 5 14 -1e+37 1e+37 0 0 empty empty empty 0 -8 0 10
#fcfcfc #000000 #000000 0.996063 256 0;
#X obj 870 10 nbx 5 14 0 1 0 0 empty empty empty 0 -8 0 10 #fcfcfc
#000000 #000000 0 256 0;
#X text 940 10 Mix;
#X obj 30 480 fexpr~ $x1 * (-0.55366 * $x2 + 0.99785);
#X obj 110 315 *~ 0.143;
#X obj 110 435 *~ 0.143;
#X obj 490 425 *~ 0.143;
#X obj 490 315 *~ 0.143;
#X obj 870 425 *~ 0.143;
#X obj 870 315 *~ 0.143;
#X obj 30 505 *~ 0.143;
#X obj 30 550 *~;
#X obj 90 550 hsl 128 15 0 1 0 0 empty empty empty -2 -8 0 10 #fcfcfc
#000000 #000000 8200 1;
#X floatatom 90 570 5 0 0 0 - - -, f 5;
#X obj 30 590 dac~;
#X obj 870 290 fexpr~ $x1 * (-0.73764*pow($x2 \, 2) + 1.2841*$x1 +
0.044372);
#X obj 870 400 fexpr~ $x1 * (-0.73764*pow($x2 \, 2) + 1.2841*$x1 +
0.044372);
#X obj 490 400 fexpr~ $x1 * (-0.73764*pow($x2 \, 2) + 1.2841*$x1 +
0.044372);
#X obj 490 290 fexpr~ $x1 * (-0.73764*pow($x2 \, 2) + 1.2841*$x1 +
0.044372);
#X obj 110 290 fexpr~ $x1 * (-0.73764*pow($x2 \, 2) + 1.2841*$x1 +
0.044372);
#X obj 110 410 fexpr~ $x1 * (-0.73764*pow($x2 \, 2) + 1.2841*$x1 +
0.044372);
#X obj 290 80 expr~;
#X obj 460 63 sig~;
#X obj 870 63 sig~;
#X obj 40 90 sig~;
#X connect 0 0 1 0;
#X connect 0 0 9 0;
#X connect 0 0 47 0;
#X connect 2 0 0 0;
#X connect 4 0 5 0;
#X connect 4 0 45 0;
#X connect 6 0 4 0;
#X connect 8 0 12 1;
#X connect 8 0 11 1;
#X connect 8 0 10 1;
#X connect 8 0 15 1;
#X connect 8 0 14 1;
#X connect 8 0 13 1;
#X connect 9 0 26 0;
#X connect 10 0 16 0;
#X connect 11 0 19 0;
#X connect 12 0 20 0;
#X connect 13 0 17 0;
#X connect 14 0 18 0;
#X connect 15 0 21 0;
#X connect 16 0 42 0;
#X connect 17 0 43 0;
#X connect 18 0 40 0;
#X connect 19 0 41 0;
#X connect 20 0 38 0;
#X connect 21 0 39 0;
#X connect 22 0 23 0;
#X connect 22 0 46 0;
#X connect 24 0 22 0;
#X connect 26 0 33 0;
#X connect 27 0 34 0;
#X connect 28 0 34 0;
#X connect 29 0 34 0;
#X connect 30 0 34 0;
#X connect 31 0 34 0;
#X connect 32 0 34 0;
#X connect 33 0 34 0;
#X connect 34 0 37 0;
#X connect 34 0 37 1;
#X connect 35 0 36 0;
#X connect 35 0 34 1;
#X connect 38 0 32 0;
#X connect 39 0 31 0;
#X connect 40 0 29 0;
#X connect 41 0 30 0;
#X connect 42 0 27 0;
#X connect 43 0 28 0;
#X connect 45 0 8 0;
#X connect 46 0 26 1;
#X connect 47 0 10 0;
#X connect 47 0 13 0;
#X connect 47 0 14 0;
#X connect 47 0 11 0;
#X connect 47 0 15 0;
#X connect 47 0 12 0;
