#N canvas 513 209 1299 740 10;
#X obj 30 40 hsl 128 15 20 1000 0 0 empty empty empty -2 -8 0 10 #fcfcfc
#000000 #000000 1766 1;
#X obj 110 60 nbx 5 14 -1e+37 1e+37 0 0 empty empty empty 0 -8 0 10
#fcfcfc #000000 #000000 156.274 256 0;
#X obj 30 10 nbx 5 14 20 1000 0 0 empty empty empty 0 -8 0 10 #fcfcfc
#000000 #000000 110 256 0;
#X text 100 10 Freq;
#X obj 670 40 hsl 128 15 0 1 0 0 empty empty empty -2 -8 0 10 #fcfcfc
#000000 #000000 9550 1;
#X obj 750 60 nbx 5 14 -1e+37 1e+37 0 0 empty empty empty 0 -8 0 10
#fcfcfc #000000 #000000 0.751969 256 0;
#X obj 670 10 nbx 5 14 0 1 0 0 empty empty empty 0 -8 0 10 #fcfcfc
#000000 #000000 0 256 0;
#X text 740 10 Detune;
#X obj 670 100 fexpr~ (10028.7312891634*pow($x \, 11))-(50818.8652045924*pow($x
\, 10))+(111363.4808729368*pow($x \, 9))-(138150.6761080548*pow($x
\, 8))+(106649.6679158292*pow($x \, 7))-(53046.9642751875*pow($x \,
6))+(17019.9518580080*pow($x \, 5))-(3425.0836591318*pow($x \, 4))+(404.2703938388*pow($x
\, 3))-(24.1878824391*pow($x \, 2))+(0.6717417634*$x)+0.0030115596
, f 65;
#X obj 110 240 fexpr~ $x1 * (1 - 0.110023 * $x2);
#X obj 490 240 fexpr~ $x1 * (1 - 0.0628844 * $x2);
#X obj 870 240 fexpr~ $x1 * (1 - 0.0195236 * $x2);
#X obj 110 350 fexpr~ $x1 * (1 - 0.0199122 * $x2);
#X obj 490 350 fexpr~ $x1 * (1 - 0.0621654 * $x2);
#X obj 870 350 fexpr~ $x1 * (1 - 0.107452 * $x2);
#X obj 870 40 hsl 128 15 0 1 0 0 empty empty empty -2 -8 0 10 #fcfcfc
#000000 #000000 7850 1;
#X obj 950 60 nbx 5 14 -1e+37 1e+37 0 0 empty empty empty 0 -8 0 10
#fcfcfc #000000 #000000 0.61811 256 0;
#X obj 870 10 nbx 5 14 0 1 0 0 empty empty empty 0 -8 0 10 #fcfcfc
#000000 #000000 0 256 0;
#X text 940 10 Mix;
#X obj 30 480 fexpr~ $x1 * (-0.55366 * $x2 + 0.99785);
#X obj 110 300 *~ 0.143;
#X obj 110 410 *~ 0.143;
#X obj 490 410 *~ 0.143;
#X obj 490 300 *~ 0.143;
#X obj 870 410 *~ 0.143;
#X obj 870 300 *~ 0.143;
#X obj 30 505 *~ 0.143;
#X obj 30 550 *~;
#X obj 90 550 hsl 128 15 0 1 0 0 empty empty empty -2 -8 0 10 #fcfcfc
#000000 #000000 2400 1;
#X floatatom 90 570 5 0 0 0 - - -, f 5;
#X obj 30 590 dac~;
#X obj 870 280 fexpr~ $x1 * (-0.73764*pow($x2 \, 2) + 1.2841*$x1 +
0.044372);
#X obj 870 390 fexpr~ $x1 * (-0.73764*pow($x2 \, 2) + 1.2841*$x1 +
0.044372);
#X obj 490 390 fexpr~ $x1 * (-0.73764*pow($x2 \, 2) + 1.2841*$x1 +
0.044372);
#X obj 490 280 fexpr~ $x1 * (-0.73764*pow($x2 \, 2) + 1.2841*$x1 +
0.044372);
#X obj 110 280 fexpr~ $x1 * (-0.73764*pow($x2 \, 2) + 1.2841*$x1 +
0.044372);
#X obj 110 390 fexpr~ $x1 * (-0.73764*pow($x2 \, 2) + 1.2841*$x1 +
0.044372);
#X obj 670 63 sig~;
#X obj 870 63 sig~;
#X obj 40 90 sig~;
#X obj 110 260 brussel~;
#X obj 490 260 brussel~;
#X obj 870 260 brussel~;
#X obj 870 370 brussel~;
#X obj 490 370 brussel~;
#X obj 110 370 brussel~;
#X obj 220 40 hsl 128 15 1 2.2 0 0 empty empty empty -2 -8 0 10 #fcfcfc
#000000 #000000 0 1;
#X obj 300 60 nbx 5 14 -1e+37 1e+37 0 0 empty empty empty 0 -8 0 10
#fcfcfc #000000 #000000 0 256 0;
#X obj 220 10 nbx 5 14 0 1 0 0 empty empty empty 0 -8 0 10 #fcfcfc
#000000 #000000 0 256 0;
#X text 290 10 A;
#X obj 410 40 hsl 128 15 6 8 0 0 empty empty empty -2 -8 0 10 #fcfcfc
#000000 #000000 0 1;
#X obj 490 60 nbx 5 14 -1e+37 1e+37 0 0 empty empty empty 0 -8 0 10
#fcfcfc #000000 #000000 0 256 0;
#X obj 410 10 nbx 5 14 6 8 0 0 empty empty empty 0 -8 0 10 #fcfcfc
#000000 #000000 6 256 0;
#X text 480 10 B;
#X obj 30 460 brussel~;
#X connect 0 0 1 0;
#X connect 0 0 39 0;
#X connect 0 0 54 0;
#X connect 2 0 0 0;
#X connect 4 0 5 0;
#X connect 4 0 37 0;
#X connect 6 0 4 0;
#X connect 8 0 11 1;
#X connect 8 0 10 1;
#X connect 8 0 9 1;
#X connect 8 0 14 1;
#X connect 8 0 13 1;
#X connect 8 0 12 1;
#X connect 9 0 40 0;
#X connect 10 0 41 0;
#X connect 11 0 42 0;
#X connect 12 0 45 0;
#X connect 13 0 44 0;
#X connect 14 0 43 0;
#X connect 15 0 16 0;
#X connect 15 0 38 0;
#X connect 17 0 15 0;
#X connect 19 0 26 0;
#X connect 20 0 27 0;
#X connect 21 0 27 0;
#X connect 22 0 27 0;
#X connect 23 0 27 0;
#X connect 24 0 27 0;
#X connect 25 0 27 0;
#X connect 26 0 27 0;
#X connect 27 0 30 0;
#X connect 27 0 30 1;
#X connect 28 0 29 0;
#X connect 28 0 27 1;
#X connect 31 0 25 0;
#X connect 32 0 24 0;
#X connect 33 0 22 0;
#X connect 34 0 23 0;
#X connect 35 0 20 0;
#X connect 36 0 21 0;
#X connect 37 0 8 0;
#X connect 38 0 19 1;
#X connect 39 0 9 0;
#X connect 39 0 12 0;
#X connect 39 0 13 0;
#X connect 39 0 10 0;
#X connect 39 0 14 0;
#X connect 39 0 11 0;
#X connect 40 0 35 0;
#X connect 41 0 34 0;
#X connect 42 0 31 0;
#X connect 43 0 32 0;
#X connect 44 0 33 0;
#X connect 45 0 36 0;
#X connect 46 0 47 0;
#X connect 46 0 40 1;
#X connect 46 0 45 1;
#X connect 46 0 54 1;
#X connect 46 0 41 1;
#X connect 46 0 44 1;
#X connect 46 0 42 1;
#X connect 46 0 43 1;
#X connect 48 0 46 0;
#X connect 50 0 51 0;
#X connect 50 0 40 2;
#X connect 50 0 45 2;
#X connect 50 0 54 2;
#X connect 50 0 41 2;
#X connect 50 0 44 2;
#X connect 50 0 42 2;
#X connect 50 0 43 2;
#X connect 52 0 50 0;
#X connect 54 0 19 0;
